<svg class="rich-terminal" viewBox="0 0 1299 904.0" xmlns="http://www.w3.org/2000/svg">
    <!-- Generated with Rich https://www.textualize.io -->
    <style>

    @font-face {
        font-family: "Fira Code";
        src: local("FiraCode-Regular"),
                url("https://cdnjs.cloudflare.com/ajax/libs/firacode/6.2.0/woff2/FiraCode-Regular.woff2") format("woff2"),
                url("https://cdnjs.cloudflare.com/ajax/libs/firacode/6.2.0/woff/FiraCode-Regular.woff") format("woff");
        font-style: normal;
        font-weight: 400;
    }
    @font-face {
        font-family: "Fira Code";
        src: local("FiraCode-Bold"),
                url("https://cdnjs.cloudflare.com/ajax/libs/firacode/6.2.0/woff2/FiraCode-Bold.woff2") format("woff2"),
                url("https://cdnjs.cloudflare.com/ajax/libs/firacode/6.2.0/woff/FiraCode-Bold.woff") format("woff");
        font-style: bold;
        font-weight: 700;
    }

    .terminal-matrix {
        font-family: Fira Code, monospace;
        font-size: 20px;
        line-height: 24.4px;
        font-variant-east-asian: full-width;
    }

    .terminal-title {
        font-size: 18px;
        font-weight: bold;
        font-family: arial;
    }

    .terminal-r1 { fill: #c5c8c6 }
.terminal-r2 { fill: #e8e8e8 }
.terminal-r3 { fill: #e8e8e8;font-weight: bold }
.terminal-r4 { fill: #7e7e7e }
.terminal-r5 { fill: #7aa8a6 }
.terminal-r6 { fill: #999999 }
.terminal-r7 { fill: #2d2d2d }
.terminal-r8 { fill: #7ea87e }
.terminal-r9 { fill: #c47c7c }
.terminal-r10 { fill: #3a3a3a }
.terminal-r11 { fill: #171717 }
    </style>

    <defs>
    <clipPath id="terminal-clip-terminal">
      <rect x="0" y="0" width="1280.0" height="853.0" />
    </clipPath>
    <clipPath id="terminal-line-0">
    <rect x="0" y="1.5" width="1281" height="24.65"/>
            </clipPath>
<clipPath id="terminal-line-1">
    <rect x="0" y="25.9" width="1281" height="24.65"/>
            </clipPath>
<clipPath id="terminal-line-2">
    <rect x="0" y="50.3" width="1281" height="24.65"/>
            </clipPath>
<clipPath id="terminal-line-3">
    <rect x="0" y="74.7" width="1281" height="24.65"/>
            </clipPath>
<clipPath id="terminal-line-4">
    <rect x="0" y="99.1" width="1281" height="24.65"/>
            </clipPath>
<clipPath id="terminal-line-5">
    <rect x="0" y="123.5" width="1281" height="24.65"/>
            </clipPath>
<clipPath id="terminal-line-6">
    <rect x="0" y="147.9" width="1281" height="24.65"/>
            </clipPath>
<clipPath id="terminal-line-7">
    <rect x="0" y="172.3" width="1281" height="24.65"/>
            </clipPath>
<clipPath id="terminal-line-8">
    <rect x="0" y="196.7" width="1281" height="24.65"/>
            </clipPath>
<clipPath id="terminal-line-9">
    <rect x="0" y="221.1" width="1281" height="24.65"/>
            </clipPath>
<clipPath id="terminal-line-10">
    <rect x="0" y="245.5" width="1281" height="24.65"/>
            </clipPath>
<clipPath id="terminal-line-11">
    <rect x="0" y="269.9" width="1281" height="24.65"/>
            </clipPath>
<clipPath id="terminal-line-12">
    <rect x="0" y="294.3" width="1281" height="24.65"/>
            </clipPath>
<clipPath id="terminal-line-13">
    <rect x="0" y="318.7" width="1281" height="24.65"/>
            </clipPath>
<clipPath id="terminal-line-14">
    <rect x="0" y="343.1" width="1281" height="24.65"/>
            </clipPath>
<clipPath id="terminal-line-15">
    <rect x="0" y="367.5" width="1281" height="24.65"/>
            </clipPath>
<clipPath id="terminal-line-16">
    <rect x="0" y="391.9" width="1281" height="24.65"/>
            </clipPath>
<clipPath id="terminal-line-17">
    <rect x="0" y="416.3" width="1281" height="24.65"/>
            </clipPath>
<clipPath id="terminal-line-18">
    <rect x="0" y="440.7" width="1281" height="24.65"/>
            </clipPath>
<clipPath id="terminal-line-19">
    <rect x="0" y="465.1" width="1281" height="24.65"/>
            </clipPath>
<clipPath id="terminal-line-20">
    <rect x="0" y="489.5" width="1281" height="24.65"/>
            </clipPath>
<clipPath id="terminal-line-21">
    <rect x="0" y="513.9" width="1281" height="24.65"/>
            </clipPath>
<clipPath id="terminal-line-22">
    <rect x="0" y="538.3" width="1281" height="24.65"/>
            </clipPath>
<clipPath id="terminal-line-23">
    <rect x="0" y="562.7" width="1281" height="24.65"/>
            </clipPath>
<clipPath id="terminal-line-24">
    <rect x="0" y="587.1" width="1281" height="24.65"/>
            </clipPath>
<clipPath id="terminal-line-25">
    <rect x="0" y="611.5" width="1281" height="24.65"/>
            </clipPath>
<clipPath id="terminal-line-26">
    <rect x="0" y="635.9" width="1281" height="24.65"/>
            </clipPath>
<clipPath id="terminal-line-27">
    <rect x="0" y="660.3" width="1281" height="24.65"/>
            </clipPath>
<clipPath id="terminal-line-28">
    <rect x="0" y="684.7" width="1281" height="24.65"/>
            </clipPath>
<clipPath id="terminal-line-29">
    <rect x="0" y="709.1" width="1281" height="24.65"/>
            </clipPath>
<clipPath id="terminal-line-30">
    <rect x="0" y="733.5" width="1281" height="24.65"/>
            </clipPath>
<clipPath id="terminal-line-31">
    <rect x="0" y="757.9" width="1281" height="24.65"/>
            </clipPath>
<clipPath id="terminal-line-32">
    <rect x="0" y="782.3" width="1281" height="24.65"/>
            </clipPath>
<clipPath id="terminal-line-33">
    <rect x="0" y="806.7" width="1281" height="24.65"/>
            </clipPath>
    </defs>

    <rect fill="#292929" stroke="rgba(255,255,255,0.35)" stroke-width="1" x="1" y="1" width="1297" height="902" rx="8"/><text class="terminal-title" fill="#c5c8c6" text-anchor="middle" x="648" y="27">luca</text>
            <g transform="translate(26,22)">
            <circle cx="0" cy="0" r="7" fill="#ff5f57"/>
            <circle cx="22" cy="0" r="7" fill="#febc2e"/>
            <circle cx="44" cy="0" r="7" fill="#28c840"/>
            </g>
        
    <g transform="translate(9, 41)" clip-path="url(#terminal-clip-terminal)">
    <rect fill="#171717" x="0" y="1.5" width="24.4" height="24.65" shape-rendering="crispEdges"/><rect fill="#171717" x="24.4" y="1.5" width="12.2" height="24.65" shape-rendering="crispEdges"/><rect fill="#171717" x="36.6" y="1.5" width="12.2" height="24.65" shape-rendering="crispEdges"/><rect fill="#171717" x="48.8" y="1.5" width="48.8" height="24.65" shape-rendering="crispEdges"/><rect fill="#171717" x="97.6" y="1.5" width="24.4" height="24.65" shape-rendering="crispEdges"/><rect fill="#171717" x="122" y="1.5" width="195.2" height="24.65" shape-rendering="crispEdges"/><rect fill="#171717" x="317.2" y="1.5" width="24.4" height="24.65" shape-rendering="crispEdges"/><rect fill="#171717" x="341.6" y="1.5" width="122" height="24.65" shape-rendering="crispEdges"/><rect fill="#171717" x="463.6" y="1.5" width="24.4" height="24.65" shape-rendering="crispEdges"/><rect fill="#171717" x="488" y="1.5" width="48.8" height="24.65" shape-rendering="crispEdges"/><rect fill="#171717" x="536.8" y="1.5" width="573.4" height="24.65" shape-rendering="crispEdges"/><rect fill="#171717" x="1110.2" y="1.5" width="146.4" height="24.65" shape-rendering="crispEdges"/><rect fill="#171717" x="1256.6" y="1.5" width="24.4" height="24.65" shape-rendering="crispEdges"/><rect fill="#2d2d2d" x="0" y="25.9" width="0" height="24.65" shape-rendering="crispEdges"/><rect fill="#2d2d2d" x="0" y="25.9" width="1281" height="24.65" shape-rendering="crispEdges"/><rect fill="#171717" x="0" y="50.3" width="1281" height="24.65" shape-rendering="crispEdges"/><rect fill="#171717" x="0" y="74.7" width="24.4" height="24.65" shape-rendering="crispEdges"/><rect fill="#171717" x="24.4" y="74.7" width="12.2" height="24.65" shape-rendering="crispEdges"/><rect fill="#171717" x="36.6" y="74.7" width="12.2" height="24.65" shape-rendering="crispEdges"/><rect fill="#171717" x="48.8" y="74.7" width="73.2" height="24.65" shape-rendering="crispEdges"/><rect fill="#171717" x="122" y="74.7" width="12.2" height="24.65" shape-rendering="crispEdges"/><rect fill="#171717" x="134.2" y="74.7" width="134.2" height="24.65" shape-rendering="crispEdges"/><rect fill="#171717" x="268.4" y="74.7" width="1012.6" height="24.65" shape-rendering="crispEdges"/><rect fill="#171717" x="0" y="99.1" width="1281" height="24.65" shape-rendering="crispEdges"/><rect fill="#171717" x="0" y="123.5" width="24.4" height="24.65" shape-rendering="crispEdges"/><rect fill="#171717" x="24.4" y="123.5" width="12.2" height="24.65" shape-rendering="crispEdges"/><rect fill="#171717" x="36.6" y="123.5" width="12.2" height="24.65" shape-rendering="crispEdges"/><rect fill="#171717" x="48.8" y="123.5" width="73.2" height="24.65" shape-rendering="crispEdges"/><rect fill="#171717" x="122" y="123.5" width="12.2" height="24.65" shape-rendering="crispEdges"/><rect fill="#171717" x="134.2" y="123.5" width="134.2" height="24.65" shape-rendering="crispEdges"/><rect fill="#171717" x="268.4" y="123.5" width="1012.6" height="24.65" shape-rendering="crispEdges"/><rect fill="#171717" x="0" y="147.9" width="36.6" height="24.65" shape-rendering="crispEdges"/><rect fill="#171717" x="36.6" y="147.9" width="12.2" height="24.65" shape-rendering="crispEdges"/><rect fill="#171717" x="48.8" y="147.9" width="24.4" height="24.65" shape-rendering="crispEdges"/><rect fill="#171717" x="73.2" y="147.9" width="97.6" height="24.65" shape-rendering="crispEdges"/><rect fill="#171717" x="170.8" y="147.9" width="1110.2" height="24.65" shape-rendering="crispEdges"/><rect fill="#171717" x="0" y="172.3" width="1281" height="24.65" shape-rendering="crispEdges"/><rect fill="#171717" x="0" y="196.7" width="24.4" height="24.65" shape-rendering="crispEdges"/><rect fill="#171717" x="24.4" y="196.7" width="12.2" height="24.65" shape-rendering="crispEdges"/><rect fill="#171717" x="36.6" y="196.7" width="12.2" height="24.65" shape-rendering="crispEdges"/><rect fill="#171717" x="48.8" y="196.7" width="73.2" height="24.65" shape-rendering="crispEdges"/><rect fill="#171717" x="122" y="196.7" width="12.2" height="24.65" shape-rendering="crispEdges"/><rect fill="#171717" x="134.2" y="196.7" width="170.8" height="24.65" shape-rendering="crispEdges"/><rect fill="#171717" x="305" y="196.7" width="890.6" height="24.65" shape-rendering="crispEdges"/><rect fill="#171717" x="1195.6" y="196.7" width="24.4" height="24.65" shape-rendering="crispEdges"/><rect fill="#171717" x="1220" y="196.7" width="12.2" height="24.65" shape-rendering="crispEdges"/><rect fill="#171717" x="1232.2" y="196.7" width="24.4" height="24.65" shape-rendering="crispEdges"/><rect fill="#171717" x="1256.6" y="196.7" width="24.4" height="24.65" shape-rendering="crispEdges"/><rect fill="#171717" x="0" y="221.1" width="1281" height="24.65" shape-rendering="crispEdges"/><rect fill="#171717" x="0" y="245.5" width="24.4" height="24.65" shape-rendering="crispEdges"/><rect fill="#171717" x="24.4" y="245.5" width="12.2" height="24.65" shape-rendering="crispEdges"/><rect fill="#171717" x="36.6" y="245.5" width="12.2" height="24.65" shape-rendering="crispEdges"/><rect fill="#171717" x="48.8" y="245.5" width="73.2" height="24.65" shape-rendering="crispEdges"/><rect fill="#171717" x="122" y="245.5" width="12.2" height="24.65" shape-rendering="crispEdges"/><rect fill="#171717" x="134.2" y="245.5" width="170.8" height="24.65" shape-rendering="crispEdges"/><rect fill="#171717" x="305" y="245.5" width="976" height="24.65" shape-rendering="crispEdges"/><rect fill="#171717" x="0" y="269.9" width="36.6" height="24.65" shape-rendering="crispEdges"/><rect fill="#171717" x="36.6" y="269.9" width="12.2" height="24.65" shape-rendering="crispEdges"/><rect fill="#171717" x="48.8" y="269.9" width="24.4" height="24.65" shape-rendering="crispEdges"/><rect fill="#171717" x="73.2" y="269.9" width="24.4" height="24.65" shape-rendering="crispEdges"/><rect fill="#171717" x="97.6" y="269.9" width="12.2" height="24.65" shape-rendering="crispEdges"/><rect fill="#171717" x="109.8" y="269.9" width="24.4" height="24.65" shape-rendering="crispEdges"/><rect fill="#171717" x="134.2" y="269.9" width="12.2" height="24.65" shape-rendering="crispEdges"/><rect fill="#171717" x="146.4" y="269.9" width="439.2" height="24.65" shape-rendering="crispEdges"/><rect fill="#171717" x="585.6" y="269.9" width="695.4" height="24.65" shape-rendering="crispEdges"/><rect fill="#171717" x="0" y="294.3" width="1281" height="24.65" shape-rendering="crispEdges"/><rect fill="#171717" x="0" y="318.7" width="24.4" height="24.65" shape-rendering="crispEdges"/><rect fill="#171717" x="24.4" y="318.7" width="12.2" height="24.65" shape-rendering="crispEdges"/><rect fill="#171717" x="36.6" y="318.7" width="12.2" height="24.65" shape-rendering="crispEdges"/><rect fill="#171717" x="48.8" y="318.7" width="73.2" height="24.65" shape-rendering="crispEdges"/><rect fill="#171717" x="122" y="318.7" width="12.2" height="24.65" shape-rendering="crispEdges"/><rect fill="#171717" x="134.2" y="318.7" width="231.8" height="24.65" shape-rendering="crispEdges"/><rect fill="#171717" x="366" y="318.7" width="915" height="24.65" shape-rendering="crispEdges"/><rect fill="#171717" x="0" y="343.1" width="36.6" height="24.65" shape-rendering="crispEdges"/><rect fill="#171717" x="36.6" y="343.1" width="12.2" height="24.65" shape-rendering="crispEdges"/><rect fill="#171717" x="48.8" y="343.1" width="24.4" height="24.65" shape-rendering="crispEdges"/><rect fill="#171717" x="73.2" y="343.1" width="73.2" height="24.65" shape-rendering="crispEdges"/><rect fill="#171717" x="146.4" y="343.1" width="12.2" height="24.65" shape-rendering="crispEdges"/><rect fill="#171717" x="158.6" y="343.1" width="378.2" height="24.65" shape-rendering="crispEdges"/><rect fill="#171717" x="536.8" y="343.1" width="744.2" height="24.65" shape-rendering="crispEdges"/><rect fill="#171717" x="0" y="367.5" width="1281" height="24.65" shape-rendering="crispEdges"/><rect fill="#171717" x="0" y="391.9" width="24.4" height="24.65" shape-rendering="crispEdges"/><rect fill="#171717" x="24.4" y="391.9" width="12.2" height="24.65" shape-rendering="crispEdges"/><rect fill="#171717" x="36.6" y="391.9" width="12.2" height="24.65" shape-rendering="crispEdges"/><rect fill="#171717" x="48.8" y="391.9" width="73.2" height="24.65" shape-rendering="crispEdges"/><rect fill="#171717" x="122" y="391.9" width="12.2" height="24.65" shape-rendering="crispEdges"/><rect fill="#171717" x="134.2" y="391.9" width="109.8" height="24.65" shape-rendering="crispEdges"/><rect fill="#171717" x="244" y="391.9" width="1037" height="24.65" shape-rendering="crispEdges"/><rect fill="#171717" x="0" y="416.3" width="36.6" height="24.65" shape-rendering="crispEdges"/><rect fill="#171717" x="36.6" y="416.3" width="12.2" height="24.65" shape-rendering="crispEdges"/><rect fill="#171717" x="48.8" y="416.3" width="24.4" height="24.65" shape-rendering="crispEdges"/><rect fill="#171717" x="73.2" y="416.3" width="915" height="24.65" shape-rendering="crispEdges"/><rect fill="#171717" x="988.2" y="416.3" width="292.8" height="24.65" shape-rendering="crispEdges"/><rect fill="#171717" x="0" y="440.7" width="36.6" height="24.65" shape-rendering="crispEdges"/><rect fill="#171717" x="36.6" y="440.7" width="12.2" height="24.65" shape-rendering="crispEdges"/><rect fill="#171717" x="48.8" y="440.7" width="24.4" height="24.65" shape-rendering="crispEdges"/><rect fill="#171717" x="73.2" y="440.7" width="585.6" height="24.65" shape-rendering="crispEdges"/><rect fill="#171717" x="658.8" y="440.7" width="622.2" height="24.65" shape-rendering="crispEdges"/><rect fill="#171717" x="0" y="465.1" width="36.6" height="24.65" shape-rendering="crispEdges"/><rect fill="#171717" x="36.6" y="465.1" width="12.2" height="24.65" shape-rendering="crispEdges"/><rect fill="#171717" x="48.8" y="465.1" width="24.4" height="24.65" shape-rendering="crispEdges"/><rect fill="#171717" x="73.2" y="465.1" width="97.6" height="24.65" shape-rendering="crispEdges"/><rect fill="#171717" x="170.8" y="465.1" width="24.4" height="24.65" shape-rendering="crispEdges"/><rect fill="#171717" x="195.2" y="465.1" width="97.6" height="24.65" shape-rendering="crispEdges"/><rect fill="#171717" x="292.8" y="465.1" width="109.8" height="24.65" shape-rendering="crispEdges"/><rect fill="#171717" x="402.6" y="465.1" width="878.4" height="24.65" shape-rendering="crispEdges"/><rect fill="#171717" x="0" y="489.5" width="36.6" height="24.65" shape-rendering="crispEdges"/><rect fill="#171717" x="36.6" y="489.5" width="12.2" height="24.65" shape-rendering="crispEdges"/><rect fill="#171717" x="48.8" y="489.5" width="24.4" height="24.65" shape-rendering="crispEdges"/><rect fill="#171717" x="73.2" y="489.5" width="366" height="24.65" shape-rendering="crispEdges"/><rect fill="#171717" x="439.2" y="489.5" width="12.2" height="24.65" shape-rendering="crispEdges"/><rect fill="#171717" x="451.4" y="489.5" width="109.8" height="24.65" shape-rendering="crispEdges"/><rect fill="#171717" x="561.2" y="489.5" width="719.8" height="24.65" shape-rendering="crispEdges"/><rect fill="#171717" x="0" y="513.9" width="1281" height="24.65" shape-rendering="crispEdges"/><rect fill="#171717" x="0" y="538.3" width="24.4" height="24.65" shape-rendering="crispEdges"/><rect fill="#171717" x="24.4" y="538.3" width="12.2" height="24.65" shape-rendering="crispEdges"/><rect fill="#171717" x="36.6" y="538.3" width="12.2" height="24.65" shape-rendering="crispEdges"/><rect fill="#171717" x="48.8" y="538.3" width="73.2" height="24.65" shape-rendering="crispEdges"/><rect fill="#171717" x="122" y="538.3" width="12.2" height="24.65" shape-rendering="crispEdges"/><rect fill="#171717" x="134.2" y="538.3" width="122" height="24.65" shape-rendering="crispEdges"/><rect fill="#171717" x="256.2" y="538.3" width="1024.8" height="24.65" shape-rendering="crispEdges"/><rect fill="#171717" x="0" y="562.7" width="36.6" height="24.65" shape-rendering="crispEdges"/><rect fill="#171717" x="36.6" y="562.7" width="12.2" height="24.65" shape-rendering="crispEdges"/><rect fill="#171717" x="48.8" y="562.7" width="24.4" height="24.65" shape-rendering="crispEdges"/><rect fill="#171717" x="73.2" y="562.7" width="268.4" height="24.65" shape-rendering="crispEdges"/><rect fill="#171717" x="341.6" y="562.7" width="939.4" height="24.65" shape-rendering="crispEdges"/><rect fill="#171717" x="0" y="587.1" width="36.6" height="24.65" shape-rendering="crispEdges"/><rect fill="#171717" x="36.6" y="587.1" width="12.2" height="24.65" shape-rendering="crispEdges"/><rect fill="#171717" x="48.8" y="587.1" width="24.4" height="24.65" shape-rendering="crispEdges"/><rect fill="#171717" x="73.2" y="587.1" width="390.4" height="24.65" shape-rendering="crispEdges"/><rect fill="#171717" x="463.6" y="587.1" width="817.4" height="24.65" shape-rendering="crispEdges"/><rect fill="#171717" x="0" y="611.5" width="1281" height="24.65" shape-rendering="crispEdges"/><rect fill="#171717" x="0" y="635.9" width="24.4" height="24.65" shape-rendering="crispEdges"/><rect fill="#171717" x="24.4" y="635.9" width="12.2" height="24.65" shape-rendering="crispEdges"/><rect fill="#171717" x="36.6" y="635.9" width="12.2" height="24.65" shape-rendering="crispEdges"/><rect fill="#171717" x="48.8" y="635.9" width="73.2" height="24.65" shape-rendering="crispEdges"/><rect fill="#171717" x="122" y="635.9" width="12.2" height="24.65" shape-rendering="crispEdges"/><rect fill="#171717" x="134.2" y="635.9" width="207.4" height="24.65" shape-rendering="crispEdges"/><rect fill="#171717" x="341.6" y="635.9" width="841.8" height="24.65" shape-rendering="crispEdges"/><rect fill="#171717" x="1183.4" y="635.9" width="73.2" height="24.65" shape-rendering="crispEdges"/><rect fill="#171717" x="1256.6" y="635.9" width="24.4" height="24.65" shape-rendering="crispEdges"/><rect fill="#171717" x="0" y="660.3" width="36.6" height="24.65" shape-rendering="crispEdges"/><rect fill="#171717" x="36.6" y="660.3" width="12.2" height="24.65" shape-rendering="crispEdges"/><rect fill="#171717" x="48.8" y="660.3" width="24.4" height="24.65" shape-rendering="crispEdges"/><rect fill="#171717" x="73.2" y="660.3" width="475.8" height="24.65" shape-rendering="crispEdges"/><rect fill="#171717" x="549" y="660.3" width="732" height="24.65" shape-rendering="crispEdges"/><rect fill="#171717" x="0" y="684.7" width="36.6" height="24.65" shape-rendering="crispEdges"/><rect fill="#171717" x="36.6" y="684.7" width="12.2" height="24.65" shape-rendering="crispEdges"/><rect fill="#171717" x="48.8" y="684.7" width="24.4" height="24.65" shape-rendering="crispEdges"/><rect fill="#171717" x="73.2" y="684.7" width="451.4" height="24.65" shape-rendering="crispEdges"/><rect fill="#171717" x="524.6" y="684.7" width="756.4" height="24.65" shape-rendering="crispEdges"/><rect fill="#171717" x="0" y="709.1" width="1281" height="24.65" shape-rendering="crispEdges"/><rect fill="#171717" x="0" y="733.5" width="1281" height="24.65" shape-rendering="crispEdges"/><rect fill="#171717" x="0" y="757.9" width="24.4" height="24.65" shape-rendering="crispEdges"/><rect fill="#171717" x="24.4" y="757.9" width="1232.2" height="24.65" shape-rendering="crispEdges"/><rect fill="#171717" x="1256.6" y="757.9" width="24.4" height="24.65" shape-rendering="crispEdges"/><rect fill="#171717" x="0" y="782.3" width="24.4" height="24.65" shape-rendering="crispEdges"/><rect fill="#171717" x="24.4" y="782.3" width="12.2" height="24.65" shape-rendering="crispEdges"/><rect fill="#171717" x="36.6" y="782.3" width="12.2" height="24.65" shape-rendering="crispEdges"/><rect fill="#171717" x="48.8" y="782.3" width="12.2" height="24.65" shape-rendering="crispEdges"/><rect fill="#171717" x="61" y="782.3" width="12.2" height="24.65" shape-rendering="crispEdges"/><rect fill="#e8e8e8" x="73.2" y="782.3" width="12.2" height="24.65" shape-rendering="crispEdges"/><rect fill="#171717" x="85.4" y="782.3" width="256.2" height="24.65" shape-rendering="crispEdges"/><rect fill="#171717" x="341.6" y="782.3" width="902.8" height="24.65" shape-rendering="crispEdges"/><rect fill="#171717" x="1244.4" y="782.3" width="12.2" height="24.65" shape-rendering="crispEdges"/><rect fill="#171717" x="1256.6" y="782.3" width="24.4" height="24.65" shape-rendering="crispEdges"/><rect fill="#171717" x="0" y="806.7" width="24.4" height="24.65" shape-rendering="crispEdges"/><rect fill="#171717" x="24.4" y="806.7" width="1232.2" height="24.65" shape-rendering="crispEdges"/><rect fill="#171717" x="1256.6" y="806.7" width="24.4" height="24.65" shape-rendering="crispEdges"/><rect fill="#171717" x="0" y="831.1" width="24.4" height="24.65" shape-rendering="crispEdges"/><rect fill="#171717" x="24.4" y="831.1" width="439.2" height="24.65" shape-rendering="crispEdges"/><rect fill="#171717" x="463.6" y="831.1" width="817.4" height="24.65" shape-rendering="crispEdges"/>
    <g class="terminal-matrix">
    <text class="terminal-r2" x="24.4" y="20" textLength="12.2" clip-path="url(#terminal-line-0)">◧</text><text class="terminal-r3" x="48.8" y="20" textLength="48.8" clip-path="url(#terminal-line-0)">luca</text><text class="terminal-r4" x="122" y="20" textLength="195.2" clip-path="url(#terminal-line-0)">~/quantized/luca</text><text class="terminal-r4" x="341.6" y="20" textLength="122" clip-path="url(#terminal-line-0)">sonnet-4.5</text><text class="terminal-r4" x="488" y="20" textLength="48.8" clip-path="url(#terminal-line-0)">main</text><text class="terminal-r4" x="1110.2" y="20" textLength="146.4" clip-path="url(#terminal-line-0)">9.9k&#160;·&#160;$0.05</text><text class="terminal-r1" x="1281" y="20" textLength="12.2" clip-path="url(#terminal-line-0)">
</text><text class="terminal-r1" x="1281" y="44.4" textLength="12.2" clip-path="url(#terminal-line-1)">
</text><text class="terminal-r1" x="1281" y="68.8" textLength="12.2" clip-path="url(#terminal-line-2)">
</text><text class="terminal-r5" x="24.4" y="93.2" textLength="12.2" clip-path="url(#terminal-line-3)">▸</text><text class="terminal-r2" x="48.8" y="93.2" textLength="73.2" clip-path="url(#terminal-line-3)">read&#160;&#160;</text><text class="terminal-r6" x="134.2" y="93.2" textLength="134.2" clip-path="url(#terminal-line-3)">luca/cli.py</text><text class="terminal-r1" x="1281" y="93.2" textLength="12.2" clip-path="url(#terminal-line-3)">
</text><text class="terminal-r1" x="1281" y="117.6" textLength="12.2" clip-path="url(#terminal-line-4)">
</text><text class="terminal-r5" x="24.4" y="142" textLength="12.2" clip-path="url(#terminal-line-5)">▸</text><text class="terminal-r2" x="48.8" y="142" textLength="73.2" clip-path="url(#terminal-line-5)">read&#160;&#160;</text><text class="terminal-r6" x="134.2" y="142" textLength="134.2" clip-path="url(#terminal-line-5)">luca/cli.py</text><text class="terminal-r1" x="1281" y="142" textLength="12.2" clip-path="url(#terminal-line-5)">
</text><text class="terminal-r7" x="36.6" y="166.4" textLength="12.2" clip-path="url(#terminal-line-6)">│</text><text class="terminal-r4" x="73.2" y="166.4" textLength="97.6" clip-path="url(#terminal-line-6)">84&#160;lines</text><text class="terminal-r1" x="1281" y="166.4" textLength="12.2" clip-path="url(#terminal-line-6)">
</text><text class="terminal-r1" x="1281" y="190.8" textLength="12.2" clip-path="url(#terminal-line-7)">
</text><text class="terminal-r5" x="24.4" y="215.2" textLength="12.2" clip-path="url(#terminal-line-8)">▸</text><text class="terminal-r2" x="48.8" y="215.2" textLength="73.2" clip-path="url(#terminal-line-8)">edit&#160;&#160;</text><text class="terminal-r6" x="134.2" y="215.2" textLength="170.8" clip-path="url(#terminal-line-8)">luca/events.py</text><text class="terminal-r8" x="1195.6" y="215.2" textLength="24.4" clip-path="url(#terminal-line-8)">+6</text><text class="terminal-r9" x="1232.2" y="215.2" textLength="24.4" clip-path="url(#terminal-line-8)">−2</text><text class="terminal-r1" x="1281" y="215.2" textLength="12.2" clip-path="url(#terminal-line-8)">
</text><text class="terminal-r1" x="1281" y="239.6" textLength="12.2" clip-path="url(#terminal-line-9)">
</text><text class="terminal-r5" x="24.4" y="264" textLength="12.2" clip-path="url(#terminal-line-10)">▸</text><text class="terminal-r2" x="48.8" y="264" textLength="73.2" clip-path="url(#terminal-line-10)">edit&#160;&#160;</text><text class="terminal-r6" x="134.2" y="264" textLength="170.8" clip-path="url(#terminal-line-10)">luca/events.py</text><text class="terminal-r1" x="1281" y="264" textLength="12.2" clip-path="url(#terminal-line-10)">
</text><text class="terminal-r7" x="36.6" y="288.4" textLength="12.2" clip-path="url(#terminal-line-11)">│</text><text class="terminal-r8" x="73.2" y="288.4" textLength="24.4" clip-path="url(#terminal-line-11)">+3</text><text class="terminal-r9" x="109.8" y="288.4" textLength="24.4" clip-path="url(#terminal-line-11)">−1</text><text class="terminal-r4" x="146.4" y="288.4" textLength="439.2" clip-path="url(#terminal-line-11)">approved&#160;by&#160;rule&#160;·&#160;edits&#160;under&#160;luca/</text><text class="terminal-r1" x="1281" y="288.4" textLength="12.2" clip-path="url(#terminal-line-11)">
</text><text class="terminal-r1" x="1281" y="312.8" textLength="12.2" clip-path="url(#terminal-line-12)">
</text><text class="terminal-r9" x="24.4" y="337.2" textLength="12.2" clip-path="url(#terminal-line-13)">▸</text><text class="terminal-r2" x="48.8" y="337.2" textLength="73.2" clip-path="url(#terminal-line-13)">bash&#160;&#160;</text><text class="terminal-r6" x="134.2" y="337.2" textLength="231.8" clip-path="url(#terminal-line-13)">rm&#160;-rf&#160;build/&#160;dist/</text><text class="terminal-r1" x="1281" y="337.2" textLength="12.2" clip-path="url(#terminal-line-13)">
</text><text class="terminal-r7" x="36.6" y="361.6" textLength="12.2" clip-path="url(#terminal-line-14)">│</text><text class="terminal-r9" x="73.2" y="361.6" textLength="73.2" clip-path="url(#terminal-line-14)">denied</text><text class="terminal-r4" x="158.6" y="361.6" textLength="378.2" clip-path="url(#terminal-line-14)">rule:&#160;never&#160;·&#160;destructive&#160;shell</text><text class="terminal-r1" x="1281" y="361.6" textLength="12.2" clip-path="url(#terminal-line-14)">
</text><text class="terminal-r1" x="1281" y="386" textLength="12.2" clip-path="url(#terminal-line-15)">
</text><text class="terminal-r5" x="24.4" y="410.4" textLength="12.2" clip-path="url(#terminal-line-16)">▸</text><text class="terminal-r2" x="48.8" y="410.4" textLength="73.2" clip-path="url(#terminal-line-16)">bash&#160;&#160;</text><text class="terminal-r6" x="134.2" y="410.4" textLength="109.8" clip-path="url(#terminal-line-16)">pytest&#160;-q</text><text class="terminal-r1" x="1281" y="410.4" textLength="12.2" clip-path="url(#terminal-line-16)">
</text><text class="terminal-r7" x="36.6" y="434.8" textLength="12.2" clip-path="url(#terminal-line-17)">│</text><text class="terminal-r6" x="73.2" y="434.8" textLength="915" clip-path="url(#terminal-line-17)">..F..&#160;&#160;&#160;&#160;&#160;&#160;&#160;&#160;&#160;&#160;&#160;&#160;&#160;&#160;&#160;&#160;&#160;&#160;&#160;&#160;&#160;&#160;&#160;&#160;&#160;&#160;&#160;&#160;&#160;&#160;&#160;&#160;&#160;&#160;&#160;&#160;&#160;&#160;&#160;&#160;&#160;&#160;&#160;&#160;&#160;&#160;&#160;&#160;&#160;&#160;&#160;&#160;&#160;&#160;&#160;&#160;&#160;&#160;&#160;&#160;&#160;&#160;&#160;&#160;[100%]</text><text class="terminal-r1" x="1281" y="434.8" textLength="12.2" clip-path="url(#terminal-line-17)">
</text><text class="terminal-r7" x="36.6" y="459.2" textLength="12.2" clip-path="url(#terminal-line-18)">│</text><text class="terminal-r9" x="73.2" y="459.2" textLength="585.6" clip-path="url(#terminal-line-18)">FAILED&#160;tests/test_events.py::test_json_roundtrip</text><text class="terminal-r1" x="1281" y="459.2" textLength="12.2" clip-path="url(#terminal-line-18)">
</text><text class="terminal-r7" x="36.6" y="483.6" textLength="12.2" clip-path="url(#terminal-line-19)">│</text><text class="terminal-r9" x="73.2" y="483.6" textLength="97.6" clip-path="url(#terminal-line-19)">1&#160;failed</text><text class="terminal-r6" x="170.8" y="483.6" textLength="24.4" clip-path="url(#terminal-line-19)">,&#160;</text><text class="terminal-r8" x="195.2" y="483.6" textLength="97.6" clip-path="url(#terminal-line-19)">4&#160;passed</text><text class="terminal-r6" x="292.8" y="483.6" textLength="109.8" clip-path="url(#terminal-line-19)">&#160;in&#160;0.31s</text><text class="terminal-r1" x="1281" y="483.6" textLength="12.2" clip-path="url(#terminal-line-19)">
</text><text class="terminal-r7" x="36.6" y="508" textLength="12.2" clip-path="url(#terminal-line-20)">│</text><text class="terminal-r4" x="73.2" y="508" textLength="366" clip-path="url(#terminal-line-20)">exit&#160;1&#160;·&#160;0.4s&#160;·&#160;2&#160;lines&#160;hidden</text><text class="terminal-r6" x="451.4" y="508" textLength="109.8" clip-path="url(#terminal-line-20)">^o&#160;expand</text><text class="terminal-r1" x="1281" y="508" textLength="12.2" clip-path="url(#terminal-line-20)">
</text><text class="terminal-r1" x="1281" y="532.4" textLength="12.2" clip-path="url(#terminal-line-21)">
</text><text class="terminal-r9" x="24.4" y="556.8" textLength="12.2" clip-path="url(#terminal-line-22)">▸</text><text class="terminal-r2" x="48.8" y="556.8" textLength="73.2" clip-path="url(#terminal-line-22)">model&#160;</text><text class="terminal-r6" x="134.2" y="556.8" textLength="122" clip-path="url(#terminal-line-22)">sonnet-4.5</text><text class="terminal-r1" x="1281" y="556.8" textLength="12.2" clip-path="url(#terminal-line-22)">
</text><text class="terminal-r9" x="36.6" y="581.2" textLength="12.2" clip-path="url(#terminal-line-23)">│</text><text class="terminal-r9" x="73.2" y="581.2" textLength="268.4" clip-path="url(#terminal-line-23)">overloaded_error&#160;·&#160;529</text><text class="terminal-r1" x="1281" y="581.2" textLength="12.2" clip-path="url(#terminal-line-23)">
</text><text class="terminal-r9" x="36.6" y="605.6" textLength="12.2" clip-path="url(#terminal-line-24)">│</text><text class="terminal-r6" x="73.2" y="605.6" textLength="390.4" clip-path="url(#terminal-line-24)">Retrying&#160;in&#160;4s&#160;—&#160;attempt&#160;2&#160;of&#160;5.</text><text class="terminal-r1" x="1281" y="605.6" textLength="12.2" clip-path="url(#terminal-line-24)">
</text><text class="terminal-r1" x="1281" y="630" textLength="12.2" clip-path="url(#terminal-line-25)">
</text><text class="terminal-r5" x="24.4" y="654.4" textLength="12.2" clip-path="url(#terminal-line-26)">▸</text><text class="terminal-r2" x="48.8" y="654.4" textLength="73.2" clip-path="url(#terminal-line-26)">skill&#160;</text><text class="terminal-r6" x="134.2" y="654.4" textLength="207.4" clip-path="url(#terminal-line-26)">sqlite-migrations</text><text class="terminal-r4" x="1183.4" y="654.4" textLength="73.2" clip-path="url(#terminal-line-26)">loaded</text><text class="terminal-r1" x="1281" y="654.4" textLength="12.2" clip-path="url(#terminal-line-26)">
</text><text class="terminal-r7" x="36.6" y="678.8" textLength="12.2" clip-path="url(#terminal-line-27)">│</text><text class="terminal-r4" x="73.2" y="678.8" textLength="475.8" clip-path="url(#terminal-line-27)">.luca/skills/sqlite-migrations/SKILL.md</text><text class="terminal-r1" x="1281" y="678.8" textLength="12.2" clip-path="url(#terminal-line-27)">
</text><text class="terminal-r7" x="36.6" y="703.2" textLength="12.2" clip-path="url(#terminal-line-28)">│</text><text class="terminal-r4" x="73.2" y="703.2" textLength="451.4" clip-path="url(#terminal-line-28)">3&#160;references&#160;·&#160;1&#160;script&#160;·&#160;1.7k&#160;tokens</text><text class="terminal-r1" x="1281" y="703.2" textLength="12.2" clip-path="url(#terminal-line-28)">
</text><text class="terminal-r1" x="1281" y="727.6" textLength="12.2" clip-path="url(#terminal-line-29)">
</text><text class="terminal-r1" x="1281" y="752" textLength="12.2" clip-path="url(#terminal-line-30)">
</text><text class="terminal-r10" x="24.4" y="776.4" textLength="1232.2" clip-path="url(#terminal-line-31)">╭───────────────────────────────────────────────────────────────────────────────────────────────────╮</text><text class="terminal-r1" x="1281" y="776.4" textLength="12.2" clip-path="url(#terminal-line-31)">
</text><text class="terminal-r10" x="24.4" y="800.8" textLength="12.2" clip-path="url(#terminal-line-32)">│</text><text class="terminal-r5" x="48.8" y="800.8" textLength="12.2" clip-path="url(#terminal-line-32)">›</text><text class="terminal-r11" x="73.2" y="800.8" textLength="12.2" clip-path="url(#terminal-line-32)">a</text><text class="terminal-r4" x="85.4" y="800.8" textLength="256.2" clip-path="url(#terminal-line-32)">sk,&#160;or&#160;/&#160;for&#160;commands</text><text class="terminal-r10" x="1244.4" y="800.8" textLength="12.2" clip-path="url(#terminal-line-32)">│</text><text class="terminal-r1" x="1281" y="800.8" textLength="12.2" clip-path="url(#terminal-line-32)">
</text><text class="terminal-r10" x="24.4" y="825.2" textLength="1232.2" clip-path="url(#terminal-line-33)">╰───────────────────────────────────────────────────────────────────────────────────────────────────╯</text><text class="terminal-r1" x="1281" y="825.2" textLength="12.2" clip-path="url(#terminal-line-33)">
</text><text class="terminal-r4" x="24.4" y="849.6" textLength="439.2" clip-path="url(#terminal-line-34)">enter&#160;send&#160;&#160;&#160;⇥&#160;complete&#160;&#160;&#160;^p&#160;palette</text>
    </g>
    </g>
</svg>
