<svg class="rich-terminal" viewBox="0 0 994 782.0" xmlns="http://www.w3.org/2000/svg">
    <!-- Generated with Rich https://www.textualize.io -->
    <style>

    @font-face {
        font-family: "Fira Code";
        src: local("FiraCode-Regular"),
                url("https://cdnjs.cloudflare.com/ajax/libs/firacode/6.2.0/woff2/FiraCode-Regular.woff2") format("woff2"),
                url("https://cdnjs.cloudflare.com/ajax/libs/firacode/6.2.0/woff/FiraCode-Regular.woff") format("woff");
        font-style: normal;
        font-weight: 400;
    }
    @font-face {
        font-family: "Fira Code";
        src: local("FiraCode-Bold"),
                url("https://cdnjs.cloudflare.com/ajax/libs/firacode/6.2.0/woff2/FiraCode-Bold.woff2") format("woff2"),
                url("https://cdnjs.cloudflare.com/ajax/libs/firacode/6.2.0/woff/FiraCode-Bold.woff") format("woff");
        font-style: bold;
        font-weight: 700;
    }

    .terminal-matrix {
        font-family: Fira Code, monospace;
        font-size: 20px;
        line-height: 24.4px;
        font-variant-east-asian: full-width;
    }

    .terminal-title {
        font-size: 18px;
        font-weight: bold;
        font-family: arial;
    }

    .terminal-r1 { fill: #c5c8c6 }
.terminal-r2 { fill: #e8e8e8 }
.terminal-r3 { fill: #e8e8e8;font-weight: bold }
.terminal-r4 { fill: #7e7e7e }
.terminal-r5 { fill: #7aa8a6 }
.terminal-r6 { fill: #999999 }
.terminal-r7 { fill: #2d2d2d }
.terminal-r8 { fill: #7ea87e }
.terminal-r9 { fill: #c47c7c }
.terminal-r10 { fill: #3a3a3a }
.terminal-r11 { fill: #171717 }
    </style>

    <defs>
    <clipPath id="terminal-clip-terminal">
      <rect x="0" y="0" width="975.0" height="731.0" />
    </clipPath>
    <clipPath id="terminal-line-0">
    <rect x="0" y="1.5" width="976" height="24.65"/>
            </clipPath>
<clipPath id="terminal-line-1">
    <rect x="0" y="25.9" width="976" height="24.65"/>
            </clipPath>
<clipPath id="terminal-line-2">
    <rect x="0" y="50.3" width="976" height="24.65"/>
            </clipPath>
<clipPath id="terminal-line-3">
    <rect x="0" y="74.7" width="976" height="24.65"/>
            </clipPath>
<clipPath id="terminal-line-4">
    <rect x="0" y="99.1" width="976" height="24.65"/>
            </clipPath>
<clipPath id="terminal-line-5">
    <rect x="0" y="123.5" width="976" height="24.65"/>
            </clipPath>
<clipPath id="terminal-line-6">
    <rect x="0" y="147.9" width="976" height="24.65"/>
            </clipPath>
<clipPath id="terminal-line-7">
    <rect x="0" y="172.3" width="976" height="24.65"/>
            </clipPath>
<clipPath id="terminal-line-8">
    <rect x="0" y="196.7" width="976" height="24.65"/>
            </clipPath>
<clipPath id="terminal-line-9">
    <rect x="0" y="221.1" width="976" height="24.65"/>
            </clipPath>
<clipPath id="terminal-line-10">
    <rect x="0" y="245.5" width="976" height="24.65"/>
            </clipPath>
<clipPath id="terminal-line-11">
    <rect x="0" y="269.9" width="976" height="24.65"/>
            </clipPath>
<clipPath id="terminal-line-12">
    <rect x="0" y="294.3" width="976" height="24.65"/>
            </clipPath>
<clipPath id="terminal-line-13">
    <rect x="0" y="318.7" width="976" height="24.65"/>
            </clipPath>
<clipPath id="terminal-line-14">
    <rect x="0" y="343.1" width="976" height="24.65"/>
            </clipPath>
<clipPath id="terminal-line-15">
    <rect x="0" y="367.5" width="976" height="24.65"/>
            </clipPath>
<clipPath id="terminal-line-16">
    <rect x="0" y="391.9" width="976" height="24.65"/>
            </clipPath>
<clipPath id="terminal-line-17">
    <rect x="0" y="416.3" width="976" height="24.65"/>
            </clipPath>
<clipPath id="terminal-line-18">
    <rect x="0" y="440.7" width="976" height="24.65"/>
            </clipPath>
<clipPath id="terminal-line-19">
    <rect x="0" y="465.1" width="976" height="24.65"/>
            </clipPath>
<clipPath id="terminal-line-20">
    <rect x="0" y="489.5" width="976" height="24.65"/>
            </clipPath>
<clipPath id="terminal-line-21">
    <rect x="0" y="513.9" width="976" height="24.65"/>
            </clipPath>
<clipPath id="terminal-line-22">
    <rect x="0" y="538.3" width="976" height="24.65"/>
            </clipPath>
<clipPath id="terminal-line-23">
    <rect x="0" y="562.7" width="976" height="24.65"/>
            </clipPath>
<clipPath id="terminal-line-24">
    <rect x="0" y="587.1" width="976" height="24.65"/>
            </clipPath>
<clipPath id="terminal-line-25">
    <rect x="0" y="611.5" width="976" height="24.65"/>
            </clipPath>
<clipPath id="terminal-line-26">
    <rect x="0" y="635.9" width="976" height="24.65"/>
            </clipPath>
<clipPath id="terminal-line-27">
    <rect x="0" y="660.3" width="976" height="24.65"/>
            </clipPath>
<clipPath id="terminal-line-28">
    <rect x="0" y="684.7" width="976" height="24.65"/>
            </clipPath>
    </defs>

    <rect fill="#292929" stroke="rgba(255,255,255,0.35)" stroke-width="1" x="1" y="1" width="992" height="780" rx="8"/><text class="terminal-title" fill="#c5c8c6" text-anchor="middle" x="496" y="27">luca</text>
            <g transform="translate(26,22)">
            <circle cx="0" cy="0" r="7" fill="#ff5f57"/>
            <circle cx="22" cy="0" r="7" fill="#febc2e"/>
            <circle cx="44" cy="0" r="7" fill="#28c840"/>
            </g>
        
    <g transform="translate(9, 41)" clip-path="url(#terminal-clip-terminal)">
    <rect fill="#171717" x="0" y="1.5" width="24.4" height="24.65" shape-rendering="crispEdges"/><rect fill="#171717" x="24.4" y="1.5" width="12.2" height="24.65" shape-rendering="crispEdges"/><rect fill="#171717" x="36.6" y="1.5" width="12.2" height="24.65" shape-rendering="crispEdges"/><rect fill="#171717" x="48.8" y="1.5" width="48.8" height="24.65" shape-rendering="crispEdges"/><rect fill="#171717" x="97.6" y="1.5" width="24.4" height="24.65" shape-rendering="crispEdges"/><rect fill="#171717" x="122" y="1.5" width="195.2" height="24.65" shape-rendering="crispEdges"/><rect fill="#171717" x="317.2" y="1.5" width="24.4" height="24.65" shape-rendering="crispEdges"/><rect fill="#171717" x="341.6" y="1.5" width="122" height="24.65" shape-rendering="crispEdges"/><rect fill="#171717" x="463.6" y="1.5" width="24.4" height="24.65" shape-rendering="crispEdges"/><rect fill="#171717" x="488" y="1.5" width="61" height="24.65" shape-rendering="crispEdges"/><rect fill="#171717" x="549" y="1.5" width="244" height="24.65" shape-rendering="crispEdges"/><rect fill="#171717" x="793" y="1.5" width="158.6" height="24.65" shape-rendering="crispEdges"/><rect fill="#171717" x="951.6" y="1.5" width="24.4" height="24.65" shape-rendering="crispEdges"/><rect fill="#2d2d2d" x="0" y="25.9" width="0" height="24.65" shape-rendering="crispEdges"/><rect fill="#2d2d2d" x="0" y="25.9" width="976" height="24.65" shape-rendering="crispEdges"/><rect fill="#171717" x="0" y="50.3" width="976" height="24.65" shape-rendering="crispEdges"/><rect fill="#171717" x="0" y="74.7" width="24.4" height="24.65" shape-rendering="crispEdges"/><rect fill="#171717" x="24.4" y="74.7" width="12.2" height="24.65" shape-rendering="crispEdges"/><rect fill="#171717" x="36.6" y="74.7" width="12.2" height="24.65" shape-rendering="crispEdges"/><rect fill="#171717" x="48.8" y="74.7" width="475.8" height="24.65" shape-rendering="crispEdges"/><rect fill="#171717" x="524.6" y="74.7" width="451.4" height="24.65" shape-rendering="crispEdges"/><rect fill="#171717" x="0" y="99.1" width="976" height="24.65" shape-rendering="crispEdges"/><rect fill="#171717" x="0" y="123.5" width="24.4" height="24.65" shape-rendering="crispEdges"/><rect fill="#171717" x="24.4" y="123.5" width="12.2" height="24.65" shape-rendering="crispEdges"/><rect fill="#171717" x="36.6" y="123.5" width="12.2" height="24.65" shape-rendering="crispEdges"/><rect fill="#171717" x="48.8" y="123.5" width="170.8" height="24.65" shape-rendering="crispEdges"/><rect fill="#171717" x="219.6" y="123.5" width="756.4" height="24.65" shape-rendering="crispEdges"/><rect fill="#171717" x="0" y="147.9" width="976" height="24.65" shape-rendering="crispEdges"/><rect fill="#171717" x="0" y="172.3" width="24.4" height="24.65" shape-rendering="crispEdges"/><rect fill="#171717" x="24.4" y="172.3" width="817.4" height="24.65" shape-rendering="crispEdges"/><rect fill="#171717" x="841.8" y="172.3" width="134.2" height="24.65" shape-rendering="crispEdges"/><rect fill="#171717" x="0" y="196.7" width="24.4" height="24.65" shape-rendering="crispEdges"/><rect fill="#171717" x="24.4" y="196.7" width="122" height="24.65" shape-rendering="crispEdges"/><rect fill="#171717" x="146.4" y="196.7" width="829.6" height="24.65" shape-rendering="crispEdges"/><rect fill="#171717" x="0" y="221.1" width="976" height="24.65" shape-rendering="crispEdges"/><rect fill="#171717" x="0" y="245.5" width="24.4" height="24.65" shape-rendering="crispEdges"/><rect fill="#171717" x="24.4" y="245.5" width="12.2" height="24.65" shape-rendering="crispEdges"/><rect fill="#171717" x="36.6" y="245.5" width="12.2" height="24.65" shape-rendering="crispEdges"/><rect fill="#171717" x="48.8" y="245.5" width="73.2" height="24.65" shape-rendering="crispEdges"/><rect fill="#171717" x="122" y="245.5" width="12.2" height="24.65" shape-rendering="crispEdges"/><rect fill="#171717" x="134.2" y="245.5" width="134.2" height="24.65" shape-rendering="crispEdges"/><rect fill="#171717" x="268.4" y="245.5" width="707.6" height="24.65" shape-rendering="crispEdges"/><rect fill="#171717" x="0" y="269.9" width="36.6" height="24.65" shape-rendering="crispEdges"/><rect fill="#171717" x="36.6" y="269.9" width="12.2" height="24.65" shape-rendering="crispEdges"/><rect fill="#171717" x="48.8" y="269.9" width="24.4" height="24.65" shape-rendering="crispEdges"/><rect fill="#171717" x="73.2" y="269.9" width="97.6" height="24.65" shape-rendering="crispEdges"/><rect fill="#171717" x="170.8" y="269.9" width="805.2" height="24.65" shape-rendering="crispEdges"/><rect fill="#171717" x="0" y="294.3" width="976" height="24.65" shape-rendering="crispEdges"/><rect fill="#171717" x="0" y="318.7" width="24.4" height="24.65" shape-rendering="crispEdges"/><rect fill="#171717" x="24.4" y="318.7" width="12.2" height="24.65" shape-rendering="crispEdges"/><rect fill="#171717" x="36.6" y="318.7" width="12.2" height="24.65" shape-rendering="crispEdges"/><rect fill="#171717" x="48.8" y="318.7" width="73.2" height="24.65" shape-rendering="crispEdges"/><rect fill="#171717" x="122" y="318.7" width="12.2" height="24.65" shape-rendering="crispEdges"/><rect fill="#171717" x="134.2" y="318.7" width="146.4" height="24.65" shape-rendering="crispEdges"/><rect fill="#171717" x="280.6" y="318.7" width="695.4" height="24.65" shape-rendering="crispEdges"/><rect fill="#171717" x="0" y="343.1" width="36.6" height="24.65" shape-rendering="crispEdges"/><rect fill="#171717" x="36.6" y="343.1" width="12.2" height="24.65" shape-rendering="crispEdges"/><rect fill="#171717" x="48.8" y="343.1" width="24.4" height="24.65" shape-rendering="crispEdges"/><rect fill="#171717" x="73.2" y="343.1" width="475.8" height="24.65" shape-rendering="crispEdges"/><rect fill="#171717" x="549" y="343.1" width="427" height="24.65" shape-rendering="crispEdges"/><rect fill="#171717" x="0" y="367.5" width="976" height="24.65" shape-rendering="crispEdges"/><rect fill="#171717" x="0" y="391.9" width="24.4" height="24.65" shape-rendering="crispEdges"/><rect fill="#171717" x="24.4" y="391.9" width="12.2" height="24.65" shape-rendering="crispEdges"/><rect fill="#171717" x="36.6" y="391.9" width="12.2" height="24.65" shape-rendering="crispEdges"/><rect fill="#171717" x="48.8" y="391.9" width="73.2" height="24.65" shape-rendering="crispEdges"/><rect fill="#171717" x="122" y="391.9" width="12.2" height="24.65" shape-rendering="crispEdges"/><rect fill="#171717" x="134.2" y="391.9" width="134.2" height="24.65" shape-rendering="crispEdges"/><rect fill="#171717" x="268.4" y="391.9" width="707.6" height="24.65" shape-rendering="crispEdges"/><rect fill="#171717" x="0" y="416.3" width="36.6" height="24.65" shape-rendering="crispEdges"/><rect fill="#171717" x="36.6" y="416.3" width="12.2" height="24.65" shape-rendering="crispEdges"/><rect fill="#171717" x="48.8" y="416.3" width="24.4" height="24.65" shape-rendering="crispEdges"/><rect fill="#171717" x="73.2" y="416.3" width="24.4" height="24.65" shape-rendering="crispEdges"/><rect fill="#171717" x="97.6" y="416.3" width="12.2" height="24.65" shape-rendering="crispEdges"/><rect fill="#171717" x="109.8" y="416.3" width="24.4" height="24.65" shape-rendering="crispEdges"/><rect fill="#171717" x="134.2" y="416.3" width="841.8" height="24.65" shape-rendering="crispEdges"/><rect fill="#171717" x="0" y="440.7" width="976" height="24.65" shape-rendering="crispEdges"/><rect fill="#171717" x="0" y="465.1" width="24.4" height="24.65" shape-rendering="crispEdges"/><rect fill="#171717" x="24.4" y="465.1" width="85.4" height="24.65" shape-rendering="crispEdges"/><rect fill="#171717" x="109.8" y="465.1" width="219.6" height="24.65" shape-rendering="crispEdges"/><rect fill="#171717" x="329.4" y="465.1" width="439.2" height="24.65" shape-rendering="crispEdges"/><rect fill="#171717" x="768.6" y="465.1" width="12.2" height="24.65" shape-rendering="crispEdges"/><rect fill="#171717" x="780.8" y="465.1" width="195.2" height="24.65" shape-rendering="crispEdges"/><rect fill="#171717" x="0" y="489.5" width="976" height="24.65" shape-rendering="crispEdges"/><rect fill="#171717" x="0" y="513.9" width="976" height="24.65" shape-rendering="crispEdges"/><rect fill="#171717" x="0" y="538.3" width="976" height="24.65" shape-rendering="crispEdges"/><rect fill="#171717" x="0" y="562.7" width="976" height="24.65" shape-rendering="crispEdges"/><rect fill="#171717" x="0" y="587.1" width="976" height="24.65" shape-rendering="crispEdges"/><rect fill="#171717" x="0" y="611.5" width="976" height="24.65" shape-rendering="crispEdges"/><rect fill="#171717" x="0" y="635.9" width="24.4" height="24.65" shape-rendering="crispEdges"/><rect fill="#171717" x="24.4" y="635.9" width="927.2" height="24.65" shape-rendering="crispEdges"/><rect fill="#171717" x="951.6" y="635.9" width="24.4" height="24.65" shape-rendering="crispEdges"/><rect fill="#171717" x="0" y="660.3" width="24.4" height="24.65" shape-rendering="crispEdges"/><rect fill="#171717" x="24.4" y="660.3" width="12.2" height="24.65" shape-rendering="crispEdges"/><rect fill="#171717" x="36.6" y="660.3" width="12.2" height="24.65" shape-rendering="crispEdges"/><rect fill="#171717" x="48.8" y="660.3" width="12.2" height="24.65" shape-rendering="crispEdges"/><rect fill="#171717" x="61" y="660.3" width="12.2" height="24.65" shape-rendering="crispEdges"/><rect fill="#e8e8e8" x="73.2" y="660.3" width="12.2" height="24.65" shape-rendering="crispEdges"/><rect fill="#171717" x="85.4" y="660.3" width="256.2" height="24.65" shape-rendering="crispEdges"/><rect fill="#171717" x="341.6" y="660.3" width="597.8" height="24.65" shape-rendering="crispEdges"/><rect fill="#171717" x="939.4" y="660.3" width="12.2" height="24.65" shape-rendering="crispEdges"/><rect fill="#171717" x="951.6" y="660.3" width="24.4" height="24.65" shape-rendering="crispEdges"/><rect fill="#171717" x="0" y="684.7" width="24.4" height="24.65" shape-rendering="crispEdges"/><rect fill="#171717" x="24.4" y="684.7" width="927.2" height="24.65" shape-rendering="crispEdges"/><rect fill="#171717" x="951.6" y="684.7" width="24.4" height="24.65" shape-rendering="crispEdges"/><rect fill="#171717" x="0" y="709.1" width="24.4" height="24.65" shape-rendering="crispEdges"/><rect fill="#171717" x="24.4" y="709.1" width="634.4" height="24.65" shape-rendering="crispEdges"/><rect fill="#171717" x="658.8" y="709.1" width="317.2" height="24.65" shape-rendering="crispEdges"/>
    <g class="terminal-matrix">
    <text class="terminal-r2" x="24.4" y="20" textLength="12.2" clip-path="url(#terminal-line-0)">◧</text><text class="terminal-r3" x="48.8" y="20" textLength="48.8" clip-path="url(#terminal-line-0)">luca</text><text class="terminal-r4" x="122" y="20" textLength="195.2" clip-path="url(#terminal-line-0)">~/quantized/luca</text><text class="terminal-r4" x="341.6" y="20" textLength="122" clip-path="url(#terminal-line-0)">sonnet-4.5</text><text class="terminal-r4" x="488" y="20" textLength="61" clip-path="url(#terminal-line-0)">main*</text><text class="terminal-r4" x="793" y="20" textLength="158.6" clip-path="url(#terminal-line-0)">12.4k&#160;·&#160;$0.08</text><text class="terminal-r1" x="976" y="20" textLength="12.2" clip-path="url(#terminal-line-0)">
</text><text class="terminal-r1" x="976" y="44.4" textLength="12.2" clip-path="url(#terminal-line-1)">
</text><text class="terminal-r1" x="976" y="68.8" textLength="12.2" clip-path="url(#terminal-line-2)">
</text><text class="terminal-r5" x="24.4" y="93.2" textLength="12.2" clip-path="url(#terminal-line-3)">›</text><text class="terminal-r2" x="48.8" y="93.2" textLength="475.8" clip-path="url(#terminal-line-3)">add&#160;a&#160;--json&#160;flag&#160;to&#160;the&#160;events&#160;command</text><text class="terminal-r1" x="976" y="93.2" textLength="12.2" clip-path="url(#terminal-line-3)">
</text><text class="terminal-r1" x="976" y="117.6" textLength="12.2" clip-path="url(#terminal-line-4)">
</text><text class="terminal-r4" x="24.4" y="142" textLength="12.2" clip-path="url(#terminal-line-5)">∴</text><text class="terminal-r4" x="48.8" y="142" textLength="170.8" clip-path="url(#terminal-line-5)">thought&#160;for&#160;3s</text><text class="terminal-r1" x="976" y="142" textLength="12.2" clip-path="url(#terminal-line-5)">
</text><text class="terminal-r1" x="976" y="166.4" textLength="12.2" clip-path="url(#terminal-line-6)">
</text><text class="terminal-r2" x="24.4" y="190.8" textLength="817.4" clip-path="url(#terminal-line-7)">I&#x27;ll&#160;add&#160;the&#160;flag&#160;to&#160;the&#160;CLI&#160;parser&#160;and&#160;thread&#160;it&#160;through&#160;the&#160;event</text><text class="terminal-r1" x="976" y="190.8" textLength="12.2" clip-path="url(#terminal-line-7)">
</text><text class="terminal-r2" x="24.4" y="215.2" textLength="122" clip-path="url(#terminal-line-8)">formatter.</text><text class="terminal-r1" x="976" y="215.2" textLength="12.2" clip-path="url(#terminal-line-8)">
</text><text class="terminal-r1" x="976" y="239.6" textLength="12.2" clip-path="url(#terminal-line-9)">
</text><text class="terminal-r5" x="24.4" y="264" textLength="12.2" clip-path="url(#terminal-line-10)">▸</text><text class="terminal-r2" x="48.8" y="264" textLength="73.2" clip-path="url(#terminal-line-10)">read&#160;&#160;</text><text class="terminal-r6" x="134.2" y="264" textLength="134.2" clip-path="url(#terminal-line-10)">luca/cli.py</text><text class="terminal-r1" x="976" y="264" textLength="12.2" clip-path="url(#terminal-line-10)">
</text><text class="terminal-r7" x="36.6" y="288.4" textLength="12.2" clip-path="url(#terminal-line-11)">│</text><text class="terminal-r4" x="73.2" y="288.4" textLength="97.6" clip-path="url(#terminal-line-11)">84&#160;lines</text><text class="terminal-r1" x="976" y="288.4" textLength="12.2" clip-path="url(#terminal-line-11)">
</text><text class="terminal-r1" x="976" y="312.8" textLength="12.2" clip-path="url(#terminal-line-12)">
</text><text class="terminal-r5" x="24.4" y="337.2" textLength="12.2" clip-path="url(#terminal-line-13)">▸</text><text class="terminal-r2" x="48.8" y="337.2" textLength="73.2" clip-path="url(#terminal-line-13)">grep&#160;&#160;</text><text class="terminal-r6" x="134.2" y="337.2" textLength="146.4" clip-path="url(#terminal-line-13)">add_argument</text><text class="terminal-r1" x="976" y="337.2" textLength="12.2" clip-path="url(#terminal-line-13)">
</text><text class="terminal-r7" x="36.6" y="361.6" textLength="12.2" clip-path="url(#terminal-line-14)">│</text><text class="terminal-r4" x="73.2" y="361.6" textLength="475.8" clip-path="url(#terminal-line-14)">6&#160;matches&#160;·&#160;luca/cli.py,&#160;luca/events.py</text><text class="terminal-r1" x="976" y="361.6" textLength="12.2" clip-path="url(#terminal-line-14)">
</text><text class="terminal-r1" x="976" y="386" textLength="12.2" clip-path="url(#terminal-line-15)">
</text><text class="terminal-r5" x="24.4" y="410.4" textLength="12.2" clip-path="url(#terminal-line-16)">▸</text><text class="terminal-r2" x="48.8" y="410.4" textLength="73.2" clip-path="url(#terminal-line-16)">edit&#160;&#160;</text><text class="terminal-r6" x="134.2" y="410.4" textLength="134.2" clip-path="url(#terminal-line-16)">luca/cli.py</text><text class="terminal-r1" x="976" y="410.4" textLength="12.2" clip-path="url(#terminal-line-16)">
</text><text class="terminal-r7" x="36.6" y="434.8" textLength="12.2" clip-path="url(#terminal-line-17)">│</text><text class="terminal-r8" x="73.2" y="434.8" textLength="24.4" clip-path="url(#terminal-line-17)">+7</text><text class="terminal-r9" x="109.8" y="434.8" textLength="24.4" clip-path="url(#terminal-line-17)">−1</text><text class="terminal-r1" x="976" y="434.8" textLength="12.2" clip-path="url(#terminal-line-17)">
</text><text class="terminal-r1" x="976" y="459.2" textLength="12.2" clip-path="url(#terminal-line-18)">
</text><text class="terminal-r2" x="24.4" y="483.6" textLength="85.4" clip-path="url(#terminal-line-19)">Done&#160;—&#160;</text><text class="terminal-r5" x="109.8" y="483.6" textLength="219.6" clip-path="url(#terminal-line-19)">luca&#160;events&#160;--json</text><text class="terminal-r2" x="329.4" y="483.6" textLength="439.2" clip-path="url(#terminal-line-19)">&#160;now&#160;emits&#160;one&#160;JSON&#160;object&#160;per&#160;line.</text><text class="terminal-r2" x="768.6" y="483.6" textLength="12.2" clip-path="url(#terminal-line-19)">█</text><text class="terminal-r1" x="976" y="483.6" textLength="12.2" clip-path="url(#terminal-line-19)">
</text><text class="terminal-r1" x="976" y="508" textLength="12.2" clip-path="url(#terminal-line-20)">
</text><text class="terminal-r1" x="976" y="532.4" textLength="12.2" clip-path="url(#terminal-line-21)">
</text><text class="terminal-r1" x="976" y="556.8" textLength="12.2" clip-path="url(#terminal-line-22)">
</text><text class="terminal-r1" x="976" y="581.2" textLength="12.2" clip-path="url(#terminal-line-23)">
</text><text class="terminal-r1" x="976" y="605.6" textLength="12.2" clip-path="url(#terminal-line-24)">
</text><text class="terminal-r1" x="976" y="630" textLength="12.2" clip-path="url(#terminal-line-25)">
</text><text class="terminal-r10" x="24.4" y="654.4" textLength="927.2" clip-path="url(#terminal-line-26)">╭──────────────────────────────────────────────────────────────────────────╮</text><text class="terminal-r1" x="976" y="654.4" textLength="12.2" clip-path="url(#terminal-line-26)">
</text><text class="terminal-r10" x="24.4" y="678.8" textLength="12.2" clip-path="url(#terminal-line-27)">│</text><text class="terminal-r5" x="48.8" y="678.8" textLength="12.2" clip-path="url(#terminal-line-27)">›</text><text class="terminal-r11" x="73.2" y="678.8" textLength="12.2" clip-path="url(#terminal-line-27)">a</text><text class="terminal-r4" x="85.4" y="678.8" textLength="256.2" clip-path="url(#terminal-line-27)">sk,&#160;or&#160;/&#160;for&#160;commands</text><text class="terminal-r10" x="939.4" y="678.8" textLength="12.2" clip-path="url(#terminal-line-27)">│</text><text class="terminal-r1" x="976" y="678.8" textLength="12.2" clip-path="url(#terminal-line-27)">
</text><text class="terminal-r10" x="24.4" y="703.2" textLength="927.2" clip-path="url(#terminal-line-28)">╰──────────────────────────────────────────────────────────────────────────╯</text><text class="terminal-r1" x="976" y="703.2" textLength="12.2" clip-path="url(#terminal-line-28)">
</text><text class="terminal-r4" x="24.4" y="727.6" textLength="634.4" clip-path="url(#terminal-line-29)">enter&#160;send&#160;&#160;&#160;⇥&#160;complete&#160;&#160;&#160;^p&#160;palette&#160;&#160;&#160;esc&#160;interrupt</text>
    </g>
    </g>
</svg>
